<svg width="126" height="23" viewBox="0 0 126 23" fill="none" xmlns="http://www.w3.org/2000/svg">
<path d="M7.44 3.408C6.4 3.408 5.72 4.016 5.4 5.232C5.08 6.432 4.92 7.896 4.92 9.624C4.92 11.48 5.16 12.952 5.64 14.04C6.136 15.128 7.04 15.672 8.352 15.672C9.136 15.672 9.808 15.472 10.368 15.072C10.928 14.672 11.368 14.096 11.688 13.344C12.312 13.648 12.624 14.176 12.624 14.928C12.624 15.696 12.376 16.352 11.88 16.896C11.384 17.44 10.744 17.848 9.96 18.12C9.192 18.392 8.384 18.528 7.536 18.528C5.152 18.528 3.408 17.768 2.304 16.248C1.2 14.728 0.648003 12.704 0.648003 10.176C0.648003 7.536 1.224 5.464 2.376 3.96C3.528 2.44 5.304 1.68 7.704 1.68C9.16 1.68 10.36 1.944 11.304 2.472C12.248 3 12.72 3.856 12.72 5.04C12.72 5.744 12.488 6.312 12.024 6.744C11.576 7.176 11 7.392 10.296 7.392C9.768 7.392 9.352 7.304 9.048 7.128C9.16 6.616 9.216 6.192 9.216 5.856C9.216 4.224 8.624 3.408 7.44 3.408Z" fill="white"/>
<path d="M16.4593 0.335999C17.1153 0.335999 17.6353 0.487999 18.0193 0.792C18.4193 1.096 18.6193 1.52 18.6193 2.064C18.6193 2.624 18.4113 3.056 17.9953 3.36C17.5793 3.648 17.0433 3.792 16.3873 3.792C15.7473 3.792 15.2193 3.648 14.8033 3.36C14.4033 3.056 14.2033 2.64 14.2033 2.112C14.2033 1.552 14.4113 1.12 14.8273 0.816C15.2593 0.495999 15.8033 0.335999 16.4593 0.335999ZM18.1873 15.6C18.1873 16.048 18.2433 16.44 18.3553 16.776C18.4673 17.112 18.6593 17.408 18.9313 17.664C18.7553 17.888 18.4833 18.056 18.1153 18.168C17.7633 18.296 17.4113 18.36 17.0593 18.36C16.2273 18.36 15.5953 18.152 15.1633 17.736C14.7313 17.304 14.5153 16.672 14.5153 15.84V5.76H18.1873V15.6Z" fill="white"/>
<path d="M19.7841 6.84V6.096C20.5521 5.808 21.3281 5.408 22.1121 4.896C22.8961 4.384 23.5441 3.84 24.0561 3.264H25.0881V5.76H27.2961V6.84H25.0641V15.384C25.0641 15.88 25.1521 16.264 25.3281 16.536C25.5201 16.792 25.8241 16.96 26.2401 17.04C26.0801 17.456 25.7841 17.776 25.3521 18C24.9201 18.24 24.4401 18.36 23.9121 18.36C23.0801 18.36 22.4481 18.136 22.0161 17.688C21.6001 17.24 21.3921 16.592 21.3921 15.744V6.84H19.7841Z" fill="white"/>
<path d="M38.6372 5.76L32.9492 22.632L29.2772 22.32L31.8692 16.704H30.3812L27.3332 5.76H31.1732L33.2372 14.976L35.4692 5.76H38.6372Z" fill="white"/>
<path d="M49.3014 5.28C51.2214 5.28 52.6614 5.848 53.6214 6.984C54.5974 8.12 55.0854 9.696 55.0854 11.712C55.0854 13.792 54.5974 15.448 53.6214 16.68C52.6454 17.912 51.2054 18.528 49.3014 18.528C47.4134 18.528 45.9734 17.936 44.9814 16.752C43.9894 15.568 43.4934 13.968 43.4934 11.952C43.4934 9.904 43.9814 8.28 44.9574 7.08C45.9494 5.88 47.3974 5.28 49.3014 5.28ZM49.3014 17.088C50.1334 17.088 50.6694 16.6 50.9094 15.624C51.1494 14.648 51.2694 13.384 51.2694 11.832C51.2694 10.36 51.1414 9.144 50.8854 8.184C50.6294 7.208 50.1014 6.72 49.3014 6.72C48.5014 6.72 47.9734 7.208 47.7174 8.184C47.4614 9.16 47.3334 10.376 47.3334 11.832C47.3334 13.384 47.4534 14.648 47.6934 15.624C47.9334 16.6 48.4694 17.088 49.3014 17.088Z" fill="white"/>
<path d="M57.5327 18.336V6.84H55.8767V5.76H57.5327L57.6047 4.536C57.6847 3.192 58.1807 2.224 59.0927 1.632C60.0047 1.024 61.2207 0.719999 62.7407 0.719999C63.8607 0.719999 64.8367 0.879999 65.6687 1.2C66.5007 1.504 66.9167 2.048 66.9167 2.832C66.9167 3.392 66.7007 3.816 66.2687 4.104C65.8367 4.392 65.2927 4.536 64.6367 4.536C64.1087 4.536 63.7327 4.456 63.5087 4.296C63.6047 3.88 63.6527 3.504 63.6527 3.168C63.6527 2.752 63.5647 2.424 63.3887 2.184C63.2127 1.944 62.9407 1.824 62.5727 1.824C61.9967 1.824 61.6207 2.056 61.4447 2.52C61.2687 2.984 61.1807 3.616 61.1807 4.416V5.76H63.5567V6.84H61.2047V18L57.5327 18.336Z" fill="white"/>
<path d="M74.5191 1.68C75.9111 1.68 77.0871 1.928 78.0471 2.424C79.0071 2.92 79.4871 3.728 79.4871 4.848C79.4871 5.552 79.2631 6.096 78.8151 6.48C78.3671 6.864 77.7831 7.056 77.0631 7.056C76.5671 7.056 76.1511 6.968 75.8151 6.792C75.9271 6.392 75.9831 5.928 75.9831 5.4C75.9831 4.76 75.8391 4.264 75.5511 3.912C75.2791 3.544 74.8391 3.36 74.2311 3.36C73.7031 3.36 73.2791 3.504 72.9591 3.792C72.6551 4.08 72.5031 4.488 72.5031 5.016C72.5031 5.56 72.6471 6.048 72.9351 6.48C73.2231 6.896 73.5751 7.256 73.9911 7.56C74.4231 7.864 75.0071 8.232 75.7431 8.664C76.6071 9.176 77.3031 9.632 77.8311 10.032C78.3751 10.432 78.8311 10.936 79.1991 11.544C79.5831 12.152 79.7751 12.88 79.7751 13.728C79.7751 15.312 79.2151 16.512 78.0951 17.328C76.9751 18.128 75.5191 18.528 73.7271 18.528C72.2391 18.528 70.9831 18.264 69.9591 17.736C68.9511 17.208 68.4471 16.352 68.4471 15.168C68.4471 14.464 68.6711 13.896 69.1191 13.464C69.5831 13.032 70.1671 12.816 70.8711 12.816C71.3991 12.816 71.8151 12.904 72.1191 13.08C72.0071 13.576 71.9511 14 71.9511 14.352C71.9511 16.016 72.6391 16.848 74.0151 16.848C74.6551 16.848 75.1751 16.672 75.5751 16.32C75.9751 15.952 76.1751 15.464 76.1751 14.856C76.1751 14.312 76.0311 13.832 75.7431 13.416C75.4551 12.984 75.0951 12.616 74.6631 12.312C74.2311 11.992 73.6551 11.616 72.9351 11.184C72.0711 10.672 71.3671 10.216 70.8231 9.816C70.2951 9.416 69.8391 8.912 69.4551 8.304C69.0871 7.696 68.9031 6.976 68.9031 6.144C68.9031 5.2 69.1591 4.392 69.6711 3.72C70.1831 3.048 70.8631 2.544 71.7111 2.208C72.5751 1.856 73.5111 1.68 74.5191 1.68Z" fill="white"/>
<path d="M81.6878 5.76L84.6878 5.472L84.8558 7.632C85.4638 6.064 86.7197 5.28 88.6237 5.28C89.5517 5.28 90.2958 5.456 90.8558 5.808C91.4158 6.144 91.8318 6.656 92.1038 7.344C92.7438 5.968 93.9117 5.28 95.6077 5.28C96.9838 5.28 97.9598 5.656 98.5358 6.408C99.1118 7.16 99.3997 8.288 99.3997 9.792V15.6C99.3997 16.048 99.4557 16.44 99.5677 16.776C99.6797 17.112 99.8718 17.408 100.144 17.664C99.9678 17.888 99.6958 18.056 99.3278 18.168C98.9758 18.296 98.6238 18.36 98.2718 18.36C97.4398 18.36 96.8077 18.152 96.3757 17.736C95.9437 17.304 95.7278 16.672 95.7278 15.84V9.984C95.7278 9.056 95.6398 8.344 95.4638 7.848C95.2878 7.352 94.8877 7.104 94.2637 7.104C93.5277 7.104 93.0398 7.472 92.7998 8.208C92.5758 8.944 92.4638 9.888 92.4638 11.04V18H88.7917V9.984C88.7917 9.04 88.7037 8.328 88.5277 7.848C88.3517 7.352 87.9357 7.104 87.2797 7.104C86.4957 7.104 85.9757 7.464 85.7197 8.184C85.4797 8.904 85.3597 9.856 85.3597 11.04V18H81.6878V5.76Z" fill="white"/>
<path d="M103.975 0.335999C104.631 0.335999 105.151 0.487999 105.535 0.792C105.935 1.096 106.135 1.52 106.135 2.064C106.135 2.624 105.927 3.056 105.511 3.36C105.095 3.648 104.559 3.792 103.903 3.792C103.263 3.792 102.735 3.648 102.319 3.36C101.919 3.056 101.719 2.64 101.719 2.112C101.719 1.552 101.927 1.12 102.343 0.816C102.775 0.495999 103.319 0.335999 103.975 0.335999ZM105.703 15.6C105.703 16.048 105.759 16.44 105.871 16.776C105.983 17.112 106.175 17.408 106.447 17.664C106.271 17.888 105.999 18.056 105.631 18.168C105.279 18.296 104.927 18.36 104.575 18.36C103.743 18.36 103.111 18.152 102.679 17.736C102.247 17.304 102.031 16.672 102.031 15.84V5.76H105.703V15.6Z" fill="white"/>
<path d="M112.22 0.816V15.6C112.22 16.048 112.276 16.44 112.388 16.776C112.5 17.112 112.692 17.408 112.964 17.664C112.788 17.888 112.516 18.056 112.148 18.168C111.796 18.296 111.444 18.36 111.092 18.36C110.26 18.36 109.628 18.152 109.196 17.736C108.764 17.304 108.548 16.672 108.548 15.84V1.2L112.22 0.816Z" fill="white"/>
<path d="M124.11 14.256C124.526 14.448 124.734 14.84 124.734 15.432C124.734 16.088 124.518 16.648 124.086 17.112C123.654 17.576 123.094 17.928 122.406 18.168C121.734 18.408 121.038 18.528 120.318 18.528C118.398 18.528 116.942 17.944 115.95 16.776C114.974 15.608 114.486 14.008 114.486 11.976C114.486 9.88 115.014 8.24 116.07 7.056C117.142 5.872 118.686 5.28 120.702 5.28C121.998 5.28 123.07 5.576 123.918 6.168C124.766 6.76 125.19 7.632 125.19 8.784C125.19 10.208 124.686 11.192 123.678 11.736C122.67 12.28 121.294 12.552 119.55 12.552C119.006 12.552 118.582 12.528 118.278 12.48C118.326 13.616 118.542 14.512 118.926 15.168C119.326 15.824 119.99 16.152 120.918 16.152C121.606 16.152 122.23 15.992 122.79 15.672C123.366 15.336 123.806 14.864 124.11 14.256ZM120.342 6.696C119.574 6.696 119.038 7.168 118.734 8.112C118.446 9.04 118.294 10.128 118.278 11.376H118.758C119.766 11.392 120.526 11.208 121.038 10.824C121.566 10.44 121.83 9.784 121.83 8.856C121.83 8.248 121.702 7.736 121.446 7.32C121.206 6.904 120.838 6.696 120.342 6.696Z" fill="white"/>
</svg>
